# xmcd
#
# Track frame offsets: 
#        150
#        16200
#        31600
#        49650
#        68550
#        79800
#        102250
#        123250
#        137550
#        153370
#        168675
#        184000
#
# Disc length: 2602 seconds
#
# Revision: 0
# Processed by: cddbd v1.5.2PL0 Copyright (c) Steve Scherf et al.
# Submitted via: ExactAudioCopy v0.99pb5
#
DISCID=8d0a280c
DTITLE=David West - Arcane
DYEAR=1992
DGENRE=Country
TTITLE0=We'll be ready
TTITLE1=Old Tom
TTITLE2=The Lighthouse Song
TTITLE3=Bed of coals
TTITLE4=Prospect of Withby
TTITLE5=Ballad of Johnny Arcane
TTITLE6=Couldn't keep his mind of Georgia
TTITLE7=Yacht Crash
TTITLE8=Constant like a flame
TTITLE9=Legend in his time
TTITLE10=Long Long Way
TTITLE11=Yosemite 1955
EXTD=
EXTT0=
EXTT1=
EXTT2=
EXTT3=
EXTT4=
EXTT5=
EXTT6=
EXTT7=
EXTT8=
EXTT9=
EXTT10=
EXTT11=
PLAYORDER=
